solid OpenSCAD_Model
  facet normal -1 0 0
    outer loop
      vertex -90 0 0
      vertex -90 80 3
      vertex -90 80 0
    endloop
  endfacet
  facet normal -1 -0 0
    outer loop
      vertex -90 80 3
      vertex -90 0 0
      vertex -90 0 3
    endloop
  endfacet
  facet normal 0.994522 -0.104529 0
    outer loop
      vertex 9.78148 -2.07912 3
      vertex 10 0 0
      vertex 10 0 3
    endloop
  endfacet
  facet normal 0.994522 -0.104529 0
    outer loop
      vertex 10 0 0
      vertex 9.78148 -2.07912 3
      vertex 9.78148 -2.07912 0
    endloop
  endfacet
  facet normal -0.994522 -0.104527 0
    outer loop
      vertex -89.7815 -2.07912 0
      vertex -90 0 3
      vertex -90 0 0
    endloop
  endfacet
  facet normal -0.994522 -0.104527 0
    outer loop
      vertex -90 0 3
      vertex -89.7815 -2.07912 0
      vertex -89.7815 -2.07912 3
    endloop
  endfacet
  facet normal 1 -0 0
    outer loop
      vertex 10 0 3
      vertex 10 80 0
      vertex 10 80 3
    endloop
  endfacet
  facet normal 1 0 0
    outer loop
      vertex 10 80 0
      vertex 10 0 3
      vertex 10 0 0
    endloop
  endfacet
  facet normal 0 0 1
    outer loop
      vertex -4.95472 83.9452 3
      vertex 4 74 3
      vertex -2.90983 83.5106 3
    endloop
  endfacet
  facet normal 0 0 1
    outer loop
      vertex 4 74 3
      vertex -4.95472 83.9452 3
      vertex -1.3 58 3
    endloop
  endfacet
  facet normal -0 0 1
    outer loop
      vertex -75.0453 83.9452 3
      vertex -1.3 58 3
      vertex -4.95472 83.9452 3
    endloop
  endfacet
  facet normal 0 0 1
    outer loop
      vertex -84 74 3
      vertex -75.0453 83.9452 3
      vertex -77.0902 83.5106 3
    endloop
  endfacet
  facet normal 0 0 1
    outer loop
      vertex -75.0453 83.9452 3
      vertex -78.7 58 3
      vertex -1.3 58 3
    endloop
  endfacet
  facet normal 0 0 1
    outer loop
      vertex -75.0453 83.9452 3
      vertex -84 74 3
      vertex -78.7 58 3
    endloop
  endfacet
  facet normal 0 0 1
    outer loop
      vertex -84 74 3
      vertex -77.0902 83.5106 3
      vertex -79 82.6603 3
    endloop
  endfacet
  facet normal 0 0 1
    outer loop
      vertex -1 82.6603 3
      vertex 4 74 3
      vertex 3.78148 76.0791 3
    endloop
  endfacet
  facet normal 0 0 1
    outer loop
      vertex 4 74 3
      vertex -1.3 58 3
      vertex 4 6 3
    endloop
  endfacet
  facet normal 0 0 1
    outer loop
      vertex -1 82.6603 3
      vertex 3.78148 76.0791 3
      vertex 3.13545 78.0674 3
    endloop
  endfacet
  facet normal 0 0 1
    outer loop
      vertex -1.3 2.6 3
      vertex 4 6 3
      vertex -1.3 58 3
    endloop
  endfacet
  facet normal 0 0 1
    outer loop
      vertex -1 82.6603 3
      vertex 3.13545 78.0674 3
      vertex 2.09017 79.8779 3
    endloop
  endfacet
  facet normal 0 0 1
    outer loop
      vertex 4 6 3
      vertex -1.3 2.6 3
      vertex 3.78148 3.92088 3
    endloop
  endfacet
  facet normal 0 0 1
    outer loop
      vertex -1 82.6603 3
      vertex 2.09017 79.8779 3
      vertex 0.691305 81.4314 3
    endloop
  endfacet
  facet normal 0 0 1
    outer loop
      vertex 3.78148 3.92088 3
      vertex -1.3 2.6 3
      vertex 3.13545 1.93263 3
    endloop
  endfacet
  facet normal 0 0 1
    outer loop
      vertex 3.13545 1.93263 3
      vertex -1.3 2.6 3
      vertex 2.09017 0.122148 3
    endloop
  endfacet
  facet normal 0 0 1
    outer loop
      vertex -2.90983 83.5106 3
      vertex 4 74 3
      vertex -1 82.6603 3
    endloop
  endfacet
  facet normal 0 0 1
    outer loop
      vertex 2.09017 0.122148 3
      vertex -1.3 2.6 3
      vertex 0.691305 -1.43145 3
    endloop
  endfacet
  facet normal 0 0 1
    outer loop
      vertex 0.691305 -1.43145 3
      vertex -1.3 2.6 3
      vertex -1 -2.66025 3
    endloop
  endfacet
  facet normal 0 0 1
    outer loop
      vertex -1.3 2.6 3
      vertex -2.90983 -3.51056 3
      vertex -1 -2.66025 3
    endloop
  endfacet
  facet normal 0 0 1
    outer loop
      vertex -1.3 2.6 3
      vertex -4.95472 -3.94522 3
      vertex -2.90983 -3.51056 3
    endloop
  endfacet
  facet normal 0 0 1
    outer loop
      vertex -1.3 2.6 3
      vertex -75.0453 -3.94522 3
      vertex -4.95472 -3.94522 3
    endloop
  endfacet
  facet normal -0 0 1
    outer loop
      vertex -78.7 2.6 3
      vertex -75.0453 -3.94522 3
      vertex -1.3 2.6 3
    endloop
  endfacet
  facet normal 0 0 1
    outer loop
      vertex -75.0453 -3.94522 3
      vertex -78.7 2.6 3
      vertex -77.0902 -3.51056 3
    endloop
  endfacet
  facet normal 0 0 1
    outer loop
      vertex -78.7 2.6 3
      vertex -79 -2.66025 3
      vertex -77.0902 -3.51056 3
    endloop
  endfacet
  facet normal 0 0 1
    outer loop
      vertex -84 6 3
      vertex -78.7 58 3
      vertex -84 74 3
    endloop
  endfacet
  facet normal 0 0 1
    outer loop
      vertex -84 74 3
      vertex -79 82.6603 3
      vertex -80.6913 81.4314 3
    endloop
  endfacet
  facet normal 0 0 1
    outer loop
      vertex -78.7 58 3
      vertex -84 6 3
      vertex -78.7 2.6 3
    endloop
  endfacet
  facet normal 0 0 1
    outer loop
      vertex -84 74 3
      vertex -80.6913 81.4314 3
      vertex -82.0902 79.8779 3
    endloop
  endfacet
  facet normal -0 -0 1
    outer loop
      vertex -83.7815 3.92088 3
      vertex -78.7 2.6 3
      vertex -84 6 3
    endloop
  endfacet
  facet normal 0 0 1
    outer loop
      vertex -84 74 3
      vertex -82.0902 79.8779 3
      vertex -83.1355 78.0674 3
    endloop
  endfacet
  facet normal 0 0 1
    outer loop
      vertex -78.7 2.6 3
      vertex -80.6913 -1.43145 3
      vertex -79 -2.66025 3
    endloop
  endfacet
  facet normal 0 0 1
    outer loop
      vertex -84 74 3
      vertex -83.1355 78.0674 3
      vertex -83.7815 76.0791 3
    endloop
  endfacet
  facet normal 0 0 1
    outer loop
      vertex -78.7 2.6 3
      vertex -82.0902 0.122148 3
      vertex -80.6913 -1.43145 3
    endloop
  endfacet
  facet normal 0 0 1
    outer loop
      vertex -78.7 2.6 3
      vertex -83.1355 1.93263 3
      vertex -82.0902 0.122148 3
    endloop
  endfacet
  facet normal 0 0 1
    outer loop
      vertex -78.7 2.6 3
      vertex -83.7815 3.92088 3
      vertex -83.1355 1.93263 3
    endloop
  endfacet
  facet normal -0 0 1
    outer loop
      vertex 6.13545 81.0674 3
      vertex 10 80 3
      vertex 9.78148 82.0791 3
    endloop
  endfacet
  facet normal 0 0 1
    outer loop
      vertex 10 80 3
      vertex 7 77 3
      vertex 10 0 3
    endloop
  endfacet
  facet normal 0 0 1
    outer loop
      vertex 6.13545 81.0674 3
      vertex 9.78148 82.0791 3
      vertex 9.13545 84.0674 3
    endloop
  endfacet
  facet normal -0 0 1
    outer loop
      vertex 7 3 3
      vertex 10 0 3
      vertex 7 77 3
    endloop
  endfacet
  facet normal 0 0 1
    outer loop
      vertex 5.09017 82.8779 3
      vertex 9.13545 84.0674 3
      vertex 8.09017 85.8779 3
    endloop
  endfacet
  facet normal -0 0 1
    outer loop
      vertex 6.78148 0.920883 3
      vertex 10 0 3
      vertex 7 3 3
    endloop
  endfacet
  facet normal 0 0 1
    outer loop
      vertex 6.13545 -1.06737 3
      vertex 10 0 3
      vertex 6.78148 0.920883 3
    endloop
  endfacet
  facet normal 0 0 1
    outer loop
      vertex 10 80 3
      vertex 6.78148 79.0791 3
      vertex 7 77 3
    endloop
  endfacet
  facet normal 0 0 1
    outer loop
      vertex 3.69131 84.4314 3
      vertex 8.09017 85.8779 3
      vertex 6.69131 87.4314 3
    endloop
  endfacet
  facet normal 0 0 1
    outer loop
      vertex 10 80 3
      vertex 6.13545 81.0674 3
      vertex 6.78148 79.0791 3
    endloop
  endfacet
  facet normal 0 0 1
    outer loop
      vertex 9.13545 84.0674 3
      vertex 5.09017 82.8779 3
      vertex 6.13545 81.0674 3
    endloop
  endfacet
  facet normal 0 0 1
    outer loop
      vertex 3.69131 84.4314 3
      vertex 6.69131 87.4314 3
      vertex 5 88.6603 3
    endloop
  endfacet
  facet normal 0 0 1
    outer loop
      vertex 8.09017 85.8779 3
      vertex 3.69131 84.4314 3
      vertex 5.09017 82.8779 3
    endloop
  endfacet
  facet normal 0 0 1
    outer loop
      vertex 2 85.6603 3
      vertex 5 88.6603 3
      vertex 3.09017 89.5106 3
    endloop
  endfacet
  facet normal 0 0 1
    outer loop
      vertex 5 88.6603 3
      vertex 2 85.6603 3
      vertex 3.69131 84.4314 3
    endloop
  endfacet
  facet normal 0 0 1
    outer loop
      vertex 0.0901699 86.5106 3
      vertex 3.09017 89.5106 3
      vertex 1.04528 89.9452 3
    endloop
  endfacet
  facet normal 0 0 1
    outer loop
      vertex 3.09017 89.5106 3
      vertex 0.0901699 86.5106 3
      vertex 2 85.6603 3
    endloop
  endfacet
  facet normal 0 0 1
    outer loop
      vertex 1.04528 89.9452 3
      vertex -1.95472 86.9452 3
      vertex 0.0901699 86.5106 3
    endloop
  endfacet
  facet normal 0 0 1
    outer loop
      vertex 1.04528 89.9452 3
      vertex -78.0453 86.9452 3
      vertex -1.95472 86.9452 3
    endloop
  endfacet
  facet normal -0 0 1
    outer loop
      vertex -81.0453 89.9452 3
      vertex -78.0453 86.9452 3
      vertex 1.04528 89.9452 3
    endloop
  endfacet
  facet normal 0 0 1
    outer loop
      vertex -81.0453 89.9452 3
      vertex -80.0902 86.5106 3
      vertex -78.0453 86.9452 3
    endloop
  endfacet
  facet normal -0 0 1
    outer loop
      vertex -83.0902 89.5106 3
      vertex -80.0902 86.5106 3
      vertex -81.0453 89.9452 3
    endloop
  endfacet
  facet normal 0 0 1
    outer loop
      vertex -80.0902 86.5106 3
      vertex -83.0902 89.5106 3
      vertex -82 85.6603 3
    endloop
  endfacet
  facet normal -0 0 1
    outer loop
      vertex -85 88.6603 3
      vertex -82 85.6603 3
      vertex -83.0902 89.5106 3
    endloop
  endfacet
  facet normal 0 0 1
    outer loop
      vertex -82 85.6603 3
      vertex -85 88.6603 3
      vertex -83.6913 84.4314 3
    endloop
  endfacet
  facet normal -0 0 1
    outer loop
      vertex -86.6913 87.4314 3
      vertex -83.6913 84.4314 3
      vertex -85 88.6603 3
    endloop
  endfacet
  facet normal -0 0 1
    outer loop
      vertex -88.0902 85.8779 3
      vertex -83.6913 84.4314 3
      vertex -86.6913 87.4314 3
    endloop
  endfacet
  facet normal 0 0 1
    outer loop
      vertex -83.6913 84.4314 3
      vertex -88.0902 85.8779 3
      vertex -85.0902 82.8779 3
    endloop
  endfacet
  facet normal -0 0 1
    outer loop
      vertex -89.1355 84.0674 3
      vertex -85.0902 82.8779 3
      vertex -88.0902 85.8779 3
    endloop
  endfacet
  facet normal 0 0 1
    outer loop
      vertex -85.0902 82.8779 3
      vertex -89.1355 84.0674 3
      vertex -86.1355 81.0674 3
    endloop
  endfacet
  facet normal 0 0 1
    outer loop
      vertex -90 80 3
      vertex -86.1355 81.0674 3
      vertex -89.7815 82.0791 3
    endloop
  endfacet
  facet normal -0 0 1
    outer loop
      vertex -89.7815 82.0791 3
      vertex -86.1355 81.0674 3
      vertex -89.1355 84.0674 3
    endloop
  endfacet
  facet normal 0 0 1
    outer loop
      vertex 10 0 3
      vertex 6.13545 -1.06737 3
      vertex 9.78148 -2.07912 3
    endloop
  endfacet
  facet normal 0 0 1
    outer loop
      vertex 9.78148 -2.07912 3
      vertex 6.13545 -1.06737 3
      vertex 9.13545 -4.06737 3
    endloop
  endfacet
  facet normal -0 0 1
    outer loop
      vertex 5.09017 -2.87785 3
      vertex 9.13545 -4.06737 3
      vertex 6.13545 -1.06737 3
    endloop
  endfacet
  facet normal 0 0 1
    outer loop
      vertex 9.13545 -4.06737 3
      vertex 5.09017 -2.87785 3
      vertex 8.09017 -5.87785 3
    endloop
  endfacet
  facet normal -0 0 1
    outer loop
      vertex 3.69131 -4.43145 3
      vertex 8.09017 -5.87785 3
      vertex 5.09017 -2.87785 3
    endloop
  endfacet
  facet normal 0 0 1
    outer loop
      vertex 8.09017 -5.87785 3
      vertex 3.69131 -4.43145 3
      vertex 6.69131 -7.43145 3
    endloop
  endfacet
  facet normal 0 0 1
    outer loop
      vertex 6.69131 -7.43145 3
      vertex 3.69131 -4.43145 3
      vertex 5 -8.66025 3
    endloop
  endfacet
  facet normal -0 0 1
    outer loop
      vertex 2 -5.66025 3
      vertex 5 -8.66025 3
      vertex 3.69131 -4.43145 3
    endloop
  endfacet
  facet normal 0 0 1
    outer loop
      vertex 5 -8.66025 3
      vertex 2 -5.66025 3
      vertex 3.09017 -9.51056 3
    endloop
  endfacet
  facet normal -0 0 1
    outer loop
      vertex 0.0901699 -6.51056 3
      vertex 3.09017 -9.51056 3
      vertex 2 -5.66025 3
    endloop
  endfacet
  facet normal 0 0 1
    outer loop
      vertex 3.09017 -9.51056 3
      vertex 0.0901699 -6.51056 3
      vertex 1.04528 -9.94522 3
    endloop
  endfacet
  facet normal -0 0 1
    outer loop
      vertex -1.95472 -6.94522 3
      vertex 1.04528 -9.94522 3
      vertex 0.0901699 -6.51056 3
    endloop
  endfacet
  facet normal -0 0 1
    outer loop
      vertex -78.0453 -6.94522 3
      vertex 1.04528 -9.94522 3
      vertex -1.95472 -6.94522 3
    endloop
  endfacet
  facet normal 0 0 1
    outer loop
      vertex -78.0453 -6.94522 3
      vertex -81.0453 -9.94522 3
      vertex 1.04528 -9.94522 3
    endloop
  endfacet
  facet normal 0 0 1
    outer loop
      vertex -80.0902 -6.51056 3
      vertex -81.0453 -9.94522 3
      vertex -78.0453 -6.94522 3
    endloop
  endfacet
  facet normal 0 0 1
    outer loop
      vertex -83.0902 -9.51056 3
      vertex -80.0902 -6.51056 3
      vertex -82 -5.66025 3
    endloop
  endfacet
  facet normal 0 0 1
    outer loop
      vertex -80.0902 -6.51056 3
      vertex -83.0902 -9.51056 3
      vertex -81.0453 -9.94522 3
    endloop
  endfacet
  facet normal 0 0 1
    outer loop
      vertex -85 -8.66025 3
      vertex -82 -5.66025 3
      vertex -83.6913 -4.43145 3
    endloop
  endfacet
  facet normal 0 0 1
    outer loop
      vertex -82 -5.66025 3
      vertex -85 -8.66025 3
      vertex -83.0902 -9.51056 3
    endloop
  endfacet
  facet normal 0 0 1
    outer loop
      vertex -88.0902 -5.87785 3
      vertex -83.6913 -4.43145 3
      vertex -85.0902 -2.87785 3
    endloop
  endfacet
  facet normal 0 0 1
    outer loop
      vertex -89.1355 -4.06737 3
      vertex -85.0902 -2.87785 3
      vertex -86.1355 -1.06737 3
    endloop
  endfacet
  facet normal 0 0 1
    outer loop
      vertex -83.6913 -4.43145 3
      vertex -86.6913 -7.43145 3
      vertex -85 -8.66025 3
    endloop
  endfacet
  facet normal -0 0 1
    outer loop
      vertex -90 0 3
      vertex -86.1355 -1.06737 3
      vertex -86.7815 0.920883 3
    endloop
  endfacet
  facet normal 0 0 1
    outer loop
      vertex -90 0 3
      vertex -86.7815 0.920883 3
      vertex -87 3 3
    endloop
  endfacet
  facet normal 0 0 1
    outer loop
      vertex -83.6913 -4.43145 3
      vertex -88.0902 -5.87785 3
      vertex -86.6913 -7.43145 3
    endloop
  endfacet
  facet normal 0 0 1
    outer loop
      vertex -87 77 3
      vertex -90 80 3
      vertex -87 3 3
    endloop
  endfacet
  facet normal 0 0 1
    outer loop
      vertex -86.1355 81.0674 3
      vertex -90 80 3
      vertex -86.7815 79.0791 3
    endloop
  endfacet
  facet normal 0 0 1
    outer loop
      vertex -90 0 3
      vertex -87 3 3
      vertex -90 80 3
    endloop
  endfacet
  facet normal 0 0 1
    outer loop
      vertex -86.7815 79.0791 3
      vertex -90 80 3
      vertex -87 77 3
    endloop
  endfacet
  facet normal 0 0 1
    outer loop
      vertex -86.1355 -1.06737 3
      vertex -90 0 3
      vertex -89.7815 -2.07912 3
    endloop
  endfacet
  facet normal 0 0 1
    outer loop
      vertex -85.0902 -2.87785 3
      vertex -89.1355 -4.06737 3
      vertex -88.0902 -5.87785 3
    endloop
  endfacet
  facet normal 0 0 1
    outer loop
      vertex -86.1355 -1.06737 3
      vertex -89.7815 -2.07912 3
      vertex -89.1355 -4.06737 3
    endloop
  endfacet
  facet normal 0 -1 0
    outer loop
      vertex -81.0453 -9.94522 0
      vertex 1.04528 -9.94522 3
      vertex -81.0453 -9.94522 3
    endloop
  endfacet
  facet normal 0 -1 -0
    outer loop
      vertex 1.04528 -9.94522 3
      vertex -81.0453 -9.94522 0
      vertex 1.04528 -9.94522 0
    endloop
  endfacet
  facet normal -0.866026 -0.499998 0
    outer loop
      vertex -88.0902 -5.87785 0
      vertex -89.1355 -4.06737 3
      vertex -89.1355 -4.06737 0
    endloop
  endfacet
  facet normal -0.866026 -0.499998 0
    outer loop
      vertex -89.1355 -4.06737 3
      vertex -88.0902 -5.87785 0
      vertex -88.0902 -5.87785 3
    endloop
  endfacet
  facet normal 0.587785 0.809017 -0
    outer loop
      vertex 6.69131 87.4314 0
      vertex 5 88.6603 3
      vertex 6.69131 87.4314 3
    endloop
  endfacet
  facet normal 0.587785 0.809017 0
    outer loop
      vertex 5 88.6603 3
      vertex 6.69131 87.4314 0
      vertex 5 88.6603 0
    endloop
  endfacet
  facet normal -0.994522 0.104527 0
    outer loop
      vertex -90 80 0
      vertex -89.7815 82.0791 3
      vertex -89.7815 82.0791 0
    endloop
  endfacet
  facet normal -0.994522 0.104527 0
    outer loop
      vertex -89.7815 82.0791 3
      vertex -90 80 0
      vertex -90 80 3
    endloop
  endfacet
  facet normal -0.951056 -0.309019 0
    outer loop
      vertex -89.1355 -4.06737 0
      vertex -89.7815 -2.07912 3
      vertex -89.7815 -2.07912 0
    endloop
  endfacet
  facet normal -0.951056 -0.309019 0
    outer loop
      vertex -89.7815 -2.07912 3
      vertex -89.1355 -4.06737 0
      vertex -89.1355 -4.06737 3
    endloop
  endfacet
  facet normal -0.951056 0.309019 0
    outer loop
      vertex -89.7815 82.0791 0
      vertex -89.1355 84.0674 3
      vertex -89.1355 84.0674 0
    endloop
  endfacet
  facet normal -0.951056 0.309019 0
    outer loop
      vertex -89.1355 84.0674 3
      vertex -89.7815 82.0791 0
      vertex -89.7815 82.0791 3
    endloop
  endfacet
  facet normal -0.587785 -0.809017 0
    outer loop
      vertex -86.6913 -7.43145 0
      vertex -85 -8.66025 3
      vertex -86.6913 -7.43145 3
    endloop
  endfacet
  facet normal -0.587785 -0.809017 -0
    outer loop
      vertex -85 -8.66025 3
      vertex -86.6913 -7.43145 0
      vertex -85 -8.66025 0
    endloop
  endfacet
  facet normal -0.743145 -0.669131 0
    outer loop
      vertex -86.6913 -7.43145 0
      vertex -88.0902 -5.87785 3
      vertex -88.0902 -5.87785 0
    endloop
  endfacet
  facet normal -0.743145 -0.669131 0
    outer loop
      vertex -88.0902 -5.87785 3
      vertex -86.6913 -7.43145 0
      vertex -86.6913 -7.43145 3
    endloop
  endfacet
  facet normal 0.743145 -0.669131 0
    outer loop
      vertex 6.69131 -7.43145 3
      vertex 8.09017 -5.87785 0
      vertex 8.09017 -5.87785 3
    endloop
  endfacet
  facet normal 0.743145 -0.669131 0
    outer loop
      vertex 8.09017 -5.87785 0
      vertex 6.69131 -7.43145 3
      vertex 6.69131 -7.43145 0
    endloop
  endfacet
  facet normal 0.207911 -0.978148 0
    outer loop
      vertex 1.04528 -9.94522 0
      vertex 3.09017 -9.51056 3
      vertex 1.04528 -9.94522 3
    endloop
  endfacet
  facet normal 0.207911 -0.978148 0
    outer loop
      vertex 3.09017 -9.51056 3
      vertex 1.04528 -9.94522 0
      vertex 3.09017 -9.51056 0
    endloop
  endfacet
  facet normal 0.994522 0.104529 0
    outer loop
      vertex 10 80 3
      vertex 9.78148 82.0791 0
      vertex 9.78148 82.0791 3
    endloop
  endfacet
  facet normal 0.994522 0.104529 0
    outer loop
      vertex 9.78148 82.0791 0
      vertex 10 80 3
      vertex 10 80 0
    endloop
  endfacet
  facet normal 0 1 -0
    outer loop
      vertex 1.04528 89.9452 0
      vertex -81.0453 89.9452 3
      vertex 1.04528 89.9452 3
    endloop
  endfacet
  facet normal 0 1 0
    outer loop
      vertex -81.0453 89.9452 3
      vertex 1.04528 89.9452 0
      vertex -81.0453 89.9452 0
    endloop
  endfacet
  facet normal 0.207912 0.978148 -0
    outer loop
      vertex 3.09017 89.5106 0
      vertex 1.04528 89.9452 3
      vertex 3.09017 89.5106 3
    endloop
  endfacet
  facet normal 0.207912 0.978148 0
    outer loop
      vertex 1.04528 89.9452 3
      vertex 3.09017 89.5106 0
      vertex 1.04528 89.9452 0
    endloop
  endfacet
  facet normal -0.406737 0.913545 0
    outer loop
      vertex -83.0902 89.5106 0
      vertex -85 88.6603 3
      vertex -83.0902 89.5106 3
    endloop
  endfacet
  facet normal -0.406737 0.913545 0
    outer loop
      vertex -85 88.6603 3
      vertex -83.0902 89.5106 0
      vertex -85 88.6603 0
    endloop
  endfacet
  facet normal -0.406737 -0.913545 0
    outer loop
      vertex -85 -8.66025 0
      vertex -83.0902 -9.51056 3
      vertex -85 -8.66025 3
    endloop
  endfacet
  facet normal -0.406737 -0.913545 -0
    outer loop
      vertex -83.0902 -9.51056 3
      vertex -85 -8.66025 0
      vertex -83.0902 -9.51056 0
    endloop
  endfacet
  facet normal -0.207912 -0.978148 0
    outer loop
      vertex -83.0902 -9.51056 0
      vertex -81.0453 -9.94522 3
      vertex -83.0902 -9.51056 3
    endloop
  endfacet
  facet normal -0.207912 -0.978148 -0
    outer loop
      vertex -81.0453 -9.94522 3
      vertex -83.0902 -9.51056 0
      vertex -81.0453 -9.94522 0
    endloop
  endfacet
  facet normal 0.866026 -0.5 0
    outer loop
      vertex 8.09017 -5.87785 3
      vertex 9.13545 -4.06737 0
      vertex 9.13545 -4.06737 3
    endloop
  endfacet
  facet normal 0.866026 -0.5 0
    outer loop
      vertex 9.13545 -4.06737 0
      vertex 8.09017 -5.87785 3
      vertex 8.09017 -5.87785 0
    endloop
  endfacet
  facet normal 0 0 -1
    outer loop
      vertex -1.3 2.6 0
      vertex 10 0 0
      vertex 9.78148 -2.07912 0
    endloop
  endfacet
  facet normal 0 0 -1
    outer loop
      vertex 10 0 0
      vertex -1.3 58 0
      vertex 10 80 0
    endloop
  endfacet
  facet normal 0 0 -1
    outer loop
      vertex -1.3 2.6 0
      vertex 9.78148 -2.07912 0
      vertex 9.13545 -4.06737 0
    endloop
  endfacet
  facet normal 0 -0 -1
    outer loop
      vertex 1.04528 89.9452 0
      vertex 10 80 0
      vertex -1.3 58 0
    endloop
  endfacet
  facet normal 0 0 -1
    outer loop
      vertex -1.3 2.6 0
      vertex 9.13545 -4.06737 0
      vertex 8.09017 -5.87785 0
    endloop
  endfacet
  facet normal 0 0 -1
    outer loop
      vertex 10 80 0
      vertex 1.04528 89.9452 0
      vertex 9.78148 82.0791 0
    endloop
  endfacet
  facet normal 0 0 -1
    outer loop
      vertex -1.3 2.6 0
      vertex 8.09017 -5.87785 0
      vertex 6.69131 -7.43145 0
    endloop
  endfacet
  facet normal 0 0 -1
    outer loop
      vertex 9.78148 82.0791 0
      vertex 1.04528 89.9452 0
      vertex 9.13545 84.0674 0
    endloop
  endfacet
  facet normal 0 0 -1
    outer loop
      vertex -1.3 2.6 0
      vertex 6.69131 -7.43145 0
      vertex 5 -8.66025 0
    endloop
  endfacet
  facet normal 0 0 -1
    outer loop
      vertex 9.13545 84.0674 0
      vertex 1.04528 89.9452 0
      vertex 8.09017 85.8779 0
    endloop
  endfacet
  facet normal 0 0 -1
    outer loop
      vertex -1.3 2.6 0
      vertex 5 -8.66025 0
      vertex 3.09017 -9.51056 0
    endloop
  endfacet
  facet normal 0 0 -1
    outer loop
      vertex 8.09017 85.8779 0
      vertex 1.04528 89.9452 0
      vertex 6.69131 87.4314 0
    endloop
  endfacet
  facet normal 0 0 -1
    outer loop
      vertex -1.3 2.6 0
      vertex 3.09017 -9.51056 0
      vertex 1.04528 -9.94522 0
    endloop
  endfacet
  facet normal 0 0 -1
    outer loop
      vertex 6.69131 87.4314 0
      vertex 1.04528 89.9452 0
      vertex 5 88.6603 0
    endloop
  endfacet
  facet normal 0 0 -1
    outer loop
      vertex 10 0 0
      vertex -1.3 2.6 0
      vertex -1.3 58 0
    endloop
  endfacet
  facet normal 0 0 -1
    outer loop
      vertex 1.04528 -9.94522 0
      vertex -78.7 2.6 0
      vertex -1.3 2.6 0
    endloop
  endfacet
  facet normal 0 0 -1
    outer loop
      vertex -83.0902 -9.51056 0
      vertex -78.7 2.6 0
      vertex -81.0453 -9.94522 0
    endloop
  endfacet
  facet normal 0 0 -1
    outer loop
      vertex -81.0453 -9.94522 0
      vertex -78.7 2.6 0
      vertex 1.04528 -9.94522 0
    endloop
  endfacet
  facet normal 0 0 -1
    outer loop
      vertex 5 88.6603 0
      vertex 1.04528 89.9452 0
      vertex 3.09017 89.5106 0
    endloop
  endfacet
  facet normal 0 0 -1
    outer loop
      vertex -78.7 58 0
      vertex 1.04528 89.9452 0
      vertex -1.3 58 0
    endloop
  endfacet
  facet normal 0 0 -1
    outer loop
      vertex -78.7 58 0
      vertex -81.0453 89.9452 0
      vertex 1.04528 89.9452 0
    endloop
  endfacet
  facet normal -0 0 -1
    outer loop
      vertex -78.7 2.6 0
      vertex -90 0 0
      vertex -78.7 58 0
    endloop
  endfacet
  facet normal 0 0 -1
    outer loop
      vertex -85 -8.66025 0
      vertex -78.7 2.6 0
      vertex -83.0902 -9.51056 0
    endloop
  endfacet
  facet normal 0 0 -1
    outer loop
      vertex -90 80 0
      vertex -78.7 58 0
      vertex -90 0 0
    endloop
  endfacet
  facet normal 0 0 -1
    outer loop
      vertex -86.6913 -7.43145 0
      vertex -78.7 2.6 0
      vertex -85 -8.66025 0
    endloop
  endfacet
  facet normal 0 0 -1
    outer loop
      vertex -78.7 58 0
      vertex -90 80 0
      vertex -81.0453 89.9452 0
    endloop
  endfacet
  facet normal 0 0 -1
    outer loop
      vertex -88.0902 -5.87785 0
      vertex -78.7 2.6 0
      vertex -86.6913 -7.43145 0
    endloop
  endfacet
  facet normal 0 0 -1
    outer loop
      vertex -81.0453 89.9452 0
      vertex -90 80 0
      vertex -83.0902 89.5106 0
    endloop
  endfacet
  facet normal 0 0 -1
    outer loop
      vertex -89.1355 -4.06737 0
      vertex -78.7 2.6 0
      vertex -88.0902 -5.87785 0
    endloop
  endfacet
  facet normal 0 0 -1
    outer loop
      vertex -83.0902 89.5106 0
      vertex -90 80 0
      vertex -85 88.6603 0
    endloop
  endfacet
  facet normal 0 0 -1
    outer loop
      vertex -89.7815 -2.07912 0
      vertex -78.7 2.6 0
      vertex -89.1355 -4.06737 0
    endloop
  endfacet
  facet normal 0 0 -1
    outer loop
      vertex -85 88.6603 0
      vertex -90 80 0
      vertex -86.6913 87.4314 0
    endloop
  endfacet
  facet normal 0 0 -1
    outer loop
      vertex -78.7 2.6 0
      vertex -89.7815 -2.07912 0
      vertex -90 0 0
    endloop
  endfacet
  facet normal 0 0 -1
    outer loop
      vertex -86.6913 87.4314 0
      vertex -90 80 0
      vertex -88.0902 85.8779 0
    endloop
  endfacet
  facet normal 0 0 -1
    outer loop
      vertex -88.0902 85.8779 0
      vertex -90 80 0
      vertex -89.1355 84.0674 0
    endloop
  endfacet
  facet normal 0 0 -1
    outer loop
      vertex -89.1355 84.0674 0
      vertex -90 80 0
      vertex -89.7815 82.0791 0
    endloop
  endfacet
  facet normal 0.406737 -0.913545 0
    outer loop
      vertex 3.09017 -9.51056 0
      vertex 5 -8.66025 3
      vertex 3.09017 -9.51056 3
    endloop
  endfacet
  facet normal 0.406737 -0.913545 0
    outer loop
      vertex 5 -8.66025 3
      vertex 3.09017 -9.51056 0
      vertex 5 -8.66025 0
    endloop
  endfacet
  facet normal 0.951057 0.309017 0
    outer loop
      vertex 9.78148 82.0791 3
      vertex 9.13545 84.0674 0
      vertex 9.13545 84.0674 3
    endloop
  endfacet
  facet normal 0.951057 0.309017 0
    outer loop
      vertex 9.13545 84.0674 0
      vertex 9.78148 82.0791 3
      vertex 9.78148 82.0791 0
    endloop
  endfacet
  facet normal 0.866025 0.5 0
    outer loop
      vertex 9.13545 84.0674 3
      vertex 8.09017 85.8779 0
      vertex 8.09017 85.8779 3
    endloop
  endfacet
  facet normal 0.866025 0.5 0
    outer loop
      vertex 8.09017 85.8779 0
      vertex 9.13545 84.0674 3
      vertex 9.13545 84.0674 0
    endloop
  endfacet
  facet normal 0.743145 0.669131 0
    outer loop
      vertex 8.09017 85.8779 3
      vertex 6.69131 87.4314 0
      vertex 6.69131 87.4314 3
    endloop
  endfacet
  facet normal 0.743145 0.669131 0
    outer loop
      vertex 6.69131 87.4314 0
      vertex 8.09017 85.8779 3
      vertex 8.09017 85.8779 0
    endloop
  endfacet
  facet normal -0.587785 0.809017 0
    outer loop
      vertex -85 88.6603 0
      vertex -86.6913 87.4314 3
      vertex -85 88.6603 3
    endloop
  endfacet
  facet normal -0.587785 0.809017 0
    outer loop
      vertex -86.6913 87.4314 3
      vertex -85 88.6603 0
      vertex -86.6913 87.4314 0
    endloop
  endfacet
  facet normal -0.207912 0.978148 0
    outer loop
      vertex -81.0453 89.9452 0
      vertex -83.0902 89.5106 3
      vertex -81.0453 89.9452 3
    endloop
  endfacet
  facet normal -0.207912 0.978148 0
    outer loop
      vertex -83.0902 89.5106 3
      vertex -81.0453 89.9452 0
      vertex -83.0902 89.5106 0
    endloop
  endfacet
  facet normal 0.406737 0.913545 -0
    outer loop
      vertex 5 88.6603 0
      vertex 3.09017 89.5106 3
      vertex 5 88.6603 3
    endloop
  endfacet
  facet normal 0.406737 0.913545 0
    outer loop
      vertex 3.09017 89.5106 3
      vertex 5 88.6603 0
      vertex 3.09017 89.5106 0
    endloop
  endfacet
  facet normal -0.866026 0.499999 0
    outer loop
      vertex -89.1355 84.0674 0
      vertex -88.0902 85.8779 3
      vertex -88.0902 85.8779 0
    endloop
  endfacet
  facet normal -0.866026 0.499999 0
    outer loop
      vertex -88.0902 85.8779 3
      vertex -89.1355 84.0674 0
      vertex -89.1355 84.0674 3
    endloop
  endfacet
  facet normal 0.951057 -0.309017 0
    outer loop
      vertex 9.13545 -4.06737 3
      vertex 9.78148 -2.07912 0
      vertex 9.78148 -2.07912 3
    endloop
  endfacet
  facet normal 0.951057 -0.309017 0
    outer loop
      vertex 9.78148 -2.07912 0
      vertex 9.13545 -4.06737 3
      vertex 9.13545 -4.06737 0
    endloop
  endfacet
  facet normal 0.587785 -0.809017 0
    outer loop
      vertex 5 -8.66025 0
      vertex 6.69131 -7.43145 3
      vertex 5 -8.66025 3
    endloop
  endfacet
  facet normal 0.587785 -0.809017 0
    outer loop
      vertex 6.69131 -7.43145 3
      vertex 5 -8.66025 0
      vertex 6.69131 -7.43145 0
    endloop
  endfacet
  facet normal -0.743145 0.669131 0
    outer loop
      vertex -88.0902 85.8779 0
      vertex -86.6913 87.4314 3
      vertex -86.6913 87.4314 0
    endloop
  endfacet
  facet normal -0.743145 0.669131 0
    outer loop
      vertex -86.6913 87.4314 3
      vertex -88.0902 85.8779 0
      vertex -88.0902 85.8779 3
    endloop
  endfacet
  facet normal -1 0 0
    outer loop
      vertex -1.3 2.6 0
      vertex -1.3 58 3
      vertex -1.3 58 0
    endloop
  endfacet
  facet normal -1 -0 0
    outer loop
      vertex -1.3 58 3
      vertex -1.3 2.6 0
      vertex -1.3 2.6 3
    endloop
  endfacet
  facet normal 1 -0 0
    outer loop
      vertex -78.7 2.6 3
      vertex -78.7 58 0
      vertex -78.7 58 3
    endloop
  endfacet
  facet normal 1 0 0
    outer loop
      vertex -78.7 58 0
      vertex -78.7 2.6 3
      vertex -78.7 2.6 0
    endloop
  endfacet
  facet normal 0 -1 0
    outer loop
      vertex -78.7 58 0
      vertex -1.3 58 3
      vertex -78.7 58 3
    endloop
  endfacet
  facet normal 0 -1 -0
    outer loop
      vertex -1.3 58 3
      vertex -78.7 58 0
      vertex -1.3 58 0
    endloop
  endfacet
  facet normal 0 1 -0
    outer loop
      vertex -1.3 2.6 0
      vertex -78.7 2.6 3
      vertex -1.3 2.6 3
    endloop
  endfacet
  facet normal 0 1 0
    outer loop
      vertex -78.7 2.6 3
      vertex -1.3 2.6 0
      vertex -78.7 2.6 0
    endloop
  endfacet
  facet normal -1 0 0
    outer loop
      vertex -87 3 3
      vertex -87 77 9
      vertex -87 77 3
    endloop
  endfacet
  facet normal -1 -0 0
    outer loop
      vertex -87 77 9
      vertex -87 3 3
      vertex -87 3 9
    endloop
  endfacet
  facet normal -0.994522 -0.104527 0
    outer loop
      vertex -86.7815 0.920883 3
      vertex -87 3 9
      vertex -87 3 3
    endloop
  endfacet
  facet normal -0.994522 -0.104527 0
    outer loop
      vertex -87 3 9
      vertex -86.7815 0.920883 3
      vertex -86.7815 0.920883 9
    endloop
  endfacet
  facet normal 1 -0 0
    outer loop
      vertex 7 3 9
      vertex 7 77 3
      vertex 7 77 9
    endloop
  endfacet
  facet normal 1 0 0
    outer loop
      vertex 7 77 3
      vertex 7 3 9
      vertex 7 3 3
    endloop
  endfacet
  facet normal -0 0 1
    outer loop
      vertex 3.13545 78.0674 9
      vertex 7 77 9
      vertex 6.78148 79.0791 9
    endloop
  endfacet
  facet normal 0 0 1
    outer loop
      vertex 7 77 9
      vertex 4 74 9
      vertex 7 3 9
    endloop
  endfacet
  facet normal 0 0 1
    outer loop
      vertex 3.13545 78.0674 9
      vertex 6.78148 79.0791 9
      vertex 6.13545 81.0674 9
    endloop
  endfacet
  facet normal -0 0 1
    outer loop
      vertex 4 6 9
      vertex 7 3 9
      vertex 4 74 9
    endloop
  endfacet
  facet normal 0 0 1
    outer loop
      vertex 2.09017 79.8779 9
      vertex 6.13545 81.0674 9
      vertex 5.09017 82.8779 9
    endloop
  endfacet
  facet normal -0 0 1
    outer loop
      vertex 3.78148 3.92088 9
      vertex 7 3 9
      vertex 4 6 9
    endloop
  endfacet
  facet normal 0 0 1
    outer loop
      vertex 3.13545 1.93263 9
      vertex 7 3 9
      vertex 3.78148 3.92088 9
    endloop
  endfacet
  facet normal 0 0 1
    outer loop
      vertex 7 77 9
      vertex 3.78148 76.0791 9
      vertex 4 74 9
    endloop
  endfacet
  facet normal 0 0 1
    outer loop
      vertex 0.691305 81.4314 9
      vertex 5.09017 82.8779 9
      vertex 3.69131 84.4314 9
    endloop
  endfacet
  facet normal 0 0 1
    outer loop
      vertex 7 77 9
      vertex 3.13545 78.0674 9
      vertex 3.78148 76.0791 9
    endloop
  endfacet
  facet normal 0 0 1
    outer loop
      vertex 6.13545 81.0674 9
      vertex 2.09017 79.8779 9
      vertex 3.13545 78.0674 9
    endloop
  endfacet
  facet normal 0 0 1
    outer loop
      vertex 0.691305 81.4314 9
      vertex 3.69131 84.4314 9
      vertex 2 85.6603 9
    endloop
  endfacet
  facet normal 0 0 1
    outer loop
      vertex 5.09017 82.8779 9
      vertex 0.691305 81.4314 9
      vertex 2.09017 79.8779 9
    endloop
  endfacet
  facet normal 0 0 1
    outer loop
      vertex -1 82.6603 9
      vertex 2 85.6603 9
      vertex 0.0901699 86.5106 9
    endloop
  endfacet
  facet normal 0 0 1
    outer loop
      vertex 2 85.6603 9
      vertex -1 82.6603 9
      vertex 0.691305 81.4314 9
    endloop
  endfacet
  facet normal 0 0 1
    outer loop
      vertex -2.90983 83.5106 9
      vertex 0.0901699 86.5106 9
      vertex -1.95472 86.9452 9
    endloop
  endfacet
  facet normal 0 0 1
    outer loop
      vertex 0.0901699 86.5106 9
      vertex -2.90983 83.5106 9
      vertex -1 82.6603 9
    endloop
  endfacet
  facet normal 0 0 1
    outer loop
      vertex -1.95472 86.9452 9
      vertex -4.95472 83.9452 9
      vertex -2.90983 83.5106 9
    endloop
  endfacet
  facet normal 0 0 1
    outer loop
      vertex -1.95472 86.9452 9
      vertex -75.0453 83.9452 9
      vertex -4.95472 83.9452 9
    endloop
  endfacet
  facet normal -0 0 1
    outer loop
      vertex -78.0453 86.9452 9
      vertex -75.0453 83.9452 9
      vertex -1.95472 86.9452 9
    endloop
  endfacet
  facet normal 0 0 1
    outer loop
      vertex -78.0453 86.9452 9
      vertex -77.0902 83.5106 9
      vertex -75.0453 83.9452 9
    endloop
  endfacet
  facet normal -0 0 1
    outer loop
      vertex -80.0902 86.5106 9
      vertex -77.0902 83.5106 9
      vertex -78.0453 86.9452 9
    endloop
  endfacet
  facet normal 0 0 1
    outer loop
      vertex -77.0902 83.5106 9
      vertex -80.0902 86.5106 9
      vertex -79 82.6603 9
    endloop
  endfacet
  facet normal -0 0 1
    outer loop
      vertex -82 85.6603 9
      vertex -79 82.6603 9
      vertex -80.0902 86.5106 9
    endloop
  endfacet
  facet normal 0 0 1
    outer loop
      vertex -79 82.6603 9
      vertex -82 85.6603 9
      vertex -80.6913 81.4314 9
    endloop
  endfacet
  facet normal -0 0 1
    outer loop
      vertex -83.6913 84.4314 9
      vertex -80.6913 81.4314 9
      vertex -82 85.6603 9
    endloop
  endfacet
  facet normal -0 0 1
    outer loop
      vertex -85.0902 82.8779 9
      vertex -80.6913 81.4314 9
      vertex -83.6913 84.4314 9
    endloop
  endfacet
  facet normal 0 0 1
    outer loop
      vertex -80.6913 81.4314 9
      vertex -85.0902 82.8779 9
      vertex -82.0902 79.8779 9
    endloop
  endfacet
  facet normal -0 0 1
    outer loop
      vertex -86.1355 81.0674 9
      vertex -82.0902 79.8779 9
      vertex -85.0902 82.8779 9
    endloop
  endfacet
  facet normal 0 0 1
    outer loop
      vertex -82.0902 79.8779 9
      vertex -86.1355 81.0674 9
      vertex -83.1355 78.0674 9
    endloop
  endfacet
  facet normal 0 0 1
    outer loop
      vertex -87 77 9
      vertex -83.1355 78.0674 9
      vertex -86.7815 79.0791 9
    endloop
  endfacet
  facet normal -0 0 1
    outer loop
      vertex -86.7815 79.0791 9
      vertex -83.1355 78.0674 9
      vertex -86.1355 81.0674 9
    endloop
  endfacet
  facet normal 0 0 1
    outer loop
      vertex 7 3 9
      vertex 3.13545 1.93263 9
      vertex 6.78148 0.920883 9
    endloop
  endfacet
  facet normal 0 0 1
    outer loop
      vertex 6.78148 0.920883 9
      vertex 3.13545 1.93263 9
      vertex 6.13545 -1.06737 9
    endloop
  endfacet
  facet normal -0 0 1
    outer loop
      vertex 2.09017 0.122148 9
      vertex 6.13545 -1.06737 9
      vertex 3.13545 1.93263 9
    endloop
  endfacet
  facet normal 0 0 1
    outer loop
      vertex 6.13545 -1.06737 9
      vertex 2.09017 0.122148 9
      vertex 5.09017 -2.87785 9
    endloop
  endfacet
  facet normal -0 0 1
    outer loop
      vertex 0.691305 -1.43145 9
      vertex 5.09017 -2.87785 9
      vertex 2.09017 0.122148 9
    endloop
  endfacet
  facet normal 0 0 1
    outer loop
      vertex 5.09017 -2.87785 9
      vertex 0.691305 -1.43145 9
      vertex 3.69131 -4.43145 9
    endloop
  endfacet
  facet normal 0 0 1
    outer loop
      vertex 3.69131 -4.43145 9
      vertex 0.691305 -1.43145 9
      vertex 2 -5.66025 9
    endloop
  endfacet
  facet normal -0 0 1
    outer loop
      vertex -1 -2.66025 9
      vertex 2 -5.66025 9
      vertex 0.691305 -1.43145 9
    endloop
  endfacet
  facet normal 0 0 1
    outer loop
      vertex 2 -5.66025 9
      vertex -1 -2.66025 9
      vertex 0.0901699 -6.51056 9
    endloop
  endfacet
  facet normal -0 0 1
    outer loop
      vertex -2.90983 -3.51056 9
      vertex 0.0901699 -6.51056 9
      vertex -1 -2.66025 9
    endloop
  endfacet
  facet normal 0 0 1
    outer loop
      vertex 0.0901699 -6.51056 9
      vertex -2.90983 -3.51056 9
      vertex -1.95472 -6.94522 9
    endloop
  endfacet
  facet normal -0 0 1
    outer loop
      vertex -4.95472 -3.94522 9
      vertex -1.95472 -6.94522 9
      vertex -2.90983 -3.51056 9
    endloop
  endfacet
  facet normal -0 0 1
    outer loop
      vertex -75.0453 -3.94522 9
      vertex -1.95472 -6.94522 9
      vertex -4.95472 -3.94522 9
    endloop
  endfacet
  facet normal 0 0 1
    outer loop
      vertex -75.0453 -3.94522 9
      vertex -78.0453 -6.94522 9
      vertex -1.95472 -6.94522 9
    endloop
  endfacet
  facet normal 0 0 1
    outer loop
      vertex -77.0902 -3.51056 9
      vertex -78.0453 -6.94522 9
      vertex -75.0453 -3.94522 9
    endloop
  endfacet
  facet normal 0 0 1
    outer loop
      vertex -80.0902 -6.51056 9
      vertex -77.0902 -3.51056 9
      vertex -79 -2.66025 9
    endloop
  endfacet
  facet normal 0 0 1
    outer loop
      vertex -77.0902 -3.51056 9
      vertex -80.0902 -6.51056 9
      vertex -78.0453 -6.94522 9
    endloop
  endfacet
  facet normal 0 0 1
    outer loop
      vertex -82 -5.66025 9
      vertex -79 -2.66025 9
      vertex -80.6913 -1.43145 9
    endloop
  endfacet
  facet normal 0 0 1
    outer loop
      vertex -79 -2.66025 9
      vertex -82 -5.66025 9
      vertex -80.0902 -6.51056 9
    endloop
  endfacet
  facet normal 0 0 1
    outer loop
      vertex -85.0902 -2.87785 9
      vertex -80.6913 -1.43145 9
      vertex -82.0902 0.122148 9
    endloop
  endfacet
  facet normal 0 0 1
    outer loop
      vertex -86.1355 -1.06737 9
      vertex -82.0902 0.122148 9
      vertex -83.1355 1.93263 9
    endloop
  endfacet
  facet normal 0 0 1
    outer loop
      vertex -80.6913 -1.43145 9
      vertex -83.6913 -4.43145 9
      vertex -82 -5.66025 9
    endloop
  endfacet
  facet normal -0 0 1
    outer loop
      vertex -87 3 9
      vertex -83.1355 1.93263 9
      vertex -83.7815 3.92088 9
    endloop
  endfacet
  facet normal 0 0 1
    outer loop
      vertex -87 3 9
      vertex -83.7815 3.92088 9
      vertex -84 6 9
    endloop
  endfacet
  facet normal 0 0 1
    outer loop
      vertex -80.6913 -1.43145 9
      vertex -85.0902 -2.87785 9
      vertex -83.6913 -4.43145 9
    endloop
  endfacet
  facet normal 0 0 1
    outer loop
      vertex -84 74 9
      vertex -87 77 9
      vertex -84 6 9
    endloop
  endfacet
  facet normal 0 0 1
    outer loop
      vertex -83.1355 78.0674 9
      vertex -87 77 9
      vertex -83.7815 76.0791 9
    endloop
  endfacet
  facet normal 0 0 1
    outer loop
      vertex -87 3 9
      vertex -84 6 9
      vertex -87 77 9
    endloop
  endfacet
  facet normal 0 0 1
    outer loop
      vertex -83.7815 76.0791 9
      vertex -87 77 9
      vertex -84 74 9
    endloop
  endfacet
  facet normal 0 0 1
    outer loop
      vertex -83.1355 1.93263 9
      vertex -87 3 9
      vertex -86.7815 0.920883 9
    endloop
  endfacet
  facet normal 0 0 1
    outer loop
      vertex -82.0902 0.122148 9
      vertex -86.1355 -1.06737 9
      vertex -85.0902 -2.87785 9
    endloop
  endfacet
  facet normal 0 0 1
    outer loop
      vertex -83.1355 1.93263 9
      vertex -86.7815 0.920883 9
      vertex -86.1355 -1.06737 9
    endloop
  endfacet
  facet normal 0 -1 0
    outer loop
      vertex -78.0453 -6.94522 3
      vertex -1.95472 -6.94522 9
      vertex -78.0453 -6.94522 9
    endloop
  endfacet
  facet normal 0 -1 -0
    outer loop
      vertex -1.95472 -6.94522 9
      vertex -78.0453 -6.94522 3
      vertex -1.95472 -6.94522 3
    endloop
  endfacet
  facet normal -0.866026 -0.499998 0
    outer loop
      vertex -85.0902 -2.87785 3
      vertex -86.1355 -1.06737 9
      vertex -86.1355 -1.06737 3
    endloop
  endfacet
  facet normal -0.866026 -0.499998 0
    outer loop
      vertex -86.1355 -1.06737 9
      vertex -85.0902 -2.87785 3
      vertex -85.0902 -2.87785 9
    endloop
  endfacet
  facet normal 0.587785 0.809017 -0
    outer loop
      vertex 3.69131 84.4314 3
      vertex 2 85.6603 9
      vertex 3.69131 84.4314 9
    endloop
  endfacet
  facet normal 0.587785 0.809017 0
    outer loop
      vertex 2 85.6603 9
      vertex 3.69131 84.4314 3
      vertex 2 85.6603 3
    endloop
  endfacet
  facet normal -0.994522 0.104527 0
    outer loop
      vertex -87 77 3
      vertex -86.7815 79.0791 9
      vertex -86.7815 79.0791 3
    endloop
  endfacet
  facet normal -0.994522 0.104527 0
    outer loop
      vertex -86.7815 79.0791 9
      vertex -87 77 3
      vertex -87 77 9
    endloop
  endfacet
  facet normal -0.951056 -0.309019 0
    outer loop
      vertex -86.1355 -1.06737 3
      vertex -86.7815 0.920883 9
      vertex -86.7815 0.920883 3
    endloop
  endfacet
  facet normal -0.951056 -0.309019 0
    outer loop
      vertex -86.7815 0.920883 9
      vertex -86.1355 -1.06737 3
      vertex -86.1355 -1.06737 9
    endloop
  endfacet
  facet normal -0.951056 0.309019 0
    outer loop
      vertex -86.7815 79.0791 3
      vertex -86.1355 81.0674 9
      vertex -86.1355 81.0674 3
    endloop
  endfacet
  facet normal -0.951056 0.309019 0
    outer loop
      vertex -86.1355 81.0674 9
      vertex -86.7815 79.0791 3
      vertex -86.7815 79.0791 9
    endloop
  endfacet
  facet normal -0.743145 0.669131 0
    outer loop
      vertex -85.0902 82.8779 3
      vertex -83.6913 84.4314 9
      vertex -83.6913 84.4314 3
    endloop
  endfacet
  facet normal -0.743145 0.669131 0
    outer loop
      vertex -83.6913 84.4314 9
      vertex -85.0902 82.8779 3
      vertex -85.0902 82.8779 9
    endloop
  endfacet
  facet normal -0.587785 -0.809017 0
    outer loop
      vertex -83.6913 -4.43145 3
      vertex -82 -5.66025 9
      vertex -83.6913 -4.43145 9
    endloop
  endfacet
  facet normal -0.587785 -0.809017 -0
    outer loop
      vertex -82 -5.66025 9
      vertex -83.6913 -4.43145 3
      vertex -82 -5.66025 3
    endloop
  endfacet
  facet normal -0.743145 -0.669131 0
    outer loop
      vertex -83.6913 -4.43145 3
      vertex -85.0902 -2.87785 9
      vertex -85.0902 -2.87785 3
    endloop
  endfacet
  facet normal -0.743145 -0.669131 0
    outer loop
      vertex -85.0902 -2.87785 9
      vertex -83.6913 -4.43145 3
      vertex -83.6913 -4.43145 9
    endloop
  endfacet
  facet normal 0.743145 -0.669131 0
    outer loop
      vertex 3.69131 -4.43145 9
      vertex 5.09017 -2.87785 3
      vertex 5.09017 -2.87785 9
    endloop
  endfacet
  facet normal 0.743145 -0.669131 0
    outer loop
      vertex 5.09017 -2.87785 3
      vertex 3.69131 -4.43145 9
      vertex 3.69131 -4.43145 3
    endloop
  endfacet
  facet normal 0.207911 -0.978148 0
    outer loop
      vertex -1.95472 -6.94522 3
      vertex 0.0901699 -6.51056 9
      vertex -1.95472 -6.94522 9
    endloop
  endfacet
  facet normal 0.207911 -0.978148 0
    outer loop
      vertex 0.0901699 -6.51056 9
      vertex -1.95472 -6.94522 3
      vertex 0.0901699 -6.51056 3
    endloop
  endfacet
  facet normal 0.994522 0.104529 0
    outer loop
      vertex 7 77 9
      vertex 6.78148 79.0791 3
      vertex 6.78148 79.0791 9
    endloop
  endfacet
  facet normal 0.994522 0.104529 0
    outer loop
      vertex 6.78148 79.0791 3
      vertex 7 77 9
      vertex 7 77 3
    endloop
  endfacet
  facet normal -0.207912 0.978148 0
    outer loop
      vertex -78.0453 86.9452 3
      vertex -80.0902 86.5106 9
      vertex -78.0453 86.9452 9
    endloop
  endfacet
  facet normal -0.207912 0.978148 0
    outer loop
      vertex -80.0902 86.5106 9
      vertex -78.0453 86.9452 3
      vertex -80.0902 86.5106 3
    endloop
  endfacet
  facet normal 0 1 -0
    outer loop
      vertex -1.95472 86.9452 3
      vertex -78.0453 86.9452 9
      vertex -1.95472 86.9452 9
    endloop
  endfacet
  facet normal 0 1 0
    outer loop
      vertex -78.0453 86.9452 9
      vertex -1.95472 86.9452 3
      vertex -78.0453 86.9452 3
    endloop
  endfacet
  facet normal 0.207912 0.978148 -0
    outer loop
      vertex 0.0901699 86.5106 3
      vertex -1.95472 86.9452 9
      vertex 0.0901699 86.5106 9
    endloop
  endfacet
  facet normal 0.207912 0.978148 0
    outer loop
      vertex -1.95472 86.9452 9
      vertex 0.0901699 86.5106 3
      vertex -1.95472 86.9452 3
    endloop
  endfacet
  facet normal -0.406737 0.913545 0
    outer loop
      vertex -80.0902 86.5106 3
      vertex -82 85.6603 9
      vertex -80.0902 86.5106 9
    endloop
  endfacet
  facet normal -0.406737 0.913545 0
    outer loop
      vertex -82 85.6603 9
      vertex -80.0902 86.5106 3
      vertex -82 85.6603 3
    endloop
  endfacet
  facet normal -0.406737 -0.913545 0
    outer loop
      vertex -82 -5.66025 3
      vertex -80.0902 -6.51056 9
      vertex -82 -5.66025 9
    endloop
  endfacet
  facet normal -0.406737 -0.913545 -0
    outer loop
      vertex -80.0902 -6.51056 9
      vertex -82 -5.66025 3
      vertex -80.0902 -6.51056 3
    endloop
  endfacet
  facet normal -0.207912 -0.978148 0
    outer loop
      vertex -80.0902 -6.51056 3
      vertex -78.0453 -6.94522 9
      vertex -80.0902 -6.51056 9
    endloop
  endfacet
  facet normal -0.207912 -0.978148 -0
    outer loop
      vertex -78.0453 -6.94522 9
      vertex -80.0902 -6.51056 3
      vertex -78.0453 -6.94522 3
    endloop
  endfacet
  facet normal 0.866026 -0.5 0
    outer loop
      vertex 5.09017 -2.87785 9
      vertex 6.13545 -1.06737 3
      vertex 6.13545 -1.06737 9
    endloop
  endfacet
  facet normal 0.866026 -0.5 0
    outer loop
      vertex 6.13545 -1.06737 3
      vertex 5.09017 -2.87785 9
      vertex 5.09017 -2.87785 3
    endloop
  endfacet
  facet normal 0.406737 -0.913545 0
    outer loop
      vertex 0.0901699 -6.51056 3
      vertex 2 -5.66025 9
      vertex 0.0901699 -6.51056 9
    endloop
  endfacet
  facet normal 0.406737 -0.913545 0
    outer loop
      vertex 2 -5.66025 9
      vertex 0.0901699 -6.51056 3
      vertex 2 -5.66025 3
    endloop
  endfacet
  facet normal 0.951057 0.309017 0
    outer loop
      vertex 6.78148 79.0791 9
      vertex 6.13545 81.0674 3
      vertex 6.13545 81.0674 9
    endloop
  endfacet
  facet normal 0.951057 0.309017 0
    outer loop
      vertex 6.13545 81.0674 3
      vertex 6.78148 79.0791 9
      vertex 6.78148 79.0791 3
    endloop
  endfacet
  facet normal 0.866025 0.5 0
    outer loop
      vertex 6.13545 81.0674 9
      vertex 5.09017 82.8779 3
      vertex 5.09017 82.8779 9
    endloop
  endfacet
  facet normal 0.866025 0.5 0
    outer loop
      vertex 5.09017 82.8779 3
      vertex 6.13545 81.0674 9
      vertex 6.13545 81.0674 3
    endloop
  endfacet
  facet normal 0.743145 0.669131 0
    outer loop
      vertex 5.09017 82.8779 9
      vertex 3.69131 84.4314 3
      vertex 3.69131 84.4314 9
    endloop
  endfacet
  facet normal 0.743145 0.669131 0
    outer loop
      vertex 3.69131 84.4314 3
      vertex 5.09017 82.8779 9
      vertex 5.09017 82.8779 3
    endloop
  endfacet
  facet normal -0.587785 0.809017 0
    outer loop
      vertex -82 85.6603 3
      vertex -83.6913 84.4314 9
      vertex -82 85.6603 9
    endloop
  endfacet
  facet normal -0.587785 0.809017 0
    outer loop
      vertex -83.6913 84.4314 9
      vertex -82 85.6603 3
      vertex -83.6913 84.4314 3
    endloop
  endfacet
  facet normal 0.406737 0.913545 -0
    outer loop
      vertex 2 85.6603 3
      vertex 0.0901699 86.5106 9
      vertex 2 85.6603 9
    endloop
  endfacet
  facet normal 0.406737 0.913545 0
    outer loop
      vertex 0.0901699 86.5106 9
      vertex 2 85.6603 3
      vertex 0.0901699 86.5106 3
    endloop
  endfacet
  facet normal -0.866026 0.499999 0
    outer loop
      vertex -86.1355 81.0674 3
      vertex -85.0902 82.8779 9
      vertex -85.0902 82.8779 3
    endloop
  endfacet
  facet normal -0.866026 0.499999 0
    outer loop
      vertex -85.0902 82.8779 9
      vertex -86.1355 81.0674 3
      vertex -86.1355 81.0674 9
    endloop
  endfacet
  facet normal 0.951057 -0.309017 0
    outer loop
      vertex 6.13545 -1.06737 9
      vertex 6.78148 0.920883 3
      vertex 6.78148 0.920883 9
    endloop
  endfacet
  facet normal 0.951057 -0.309017 0
    outer loop
      vertex 6.78148 0.920883 3
      vertex 6.13545 -1.06737 9
      vertex 6.13545 -1.06737 3
    endloop
  endfacet
  facet normal 0.994522 -0.104529 0
    outer loop
      vertex 6.78148 0.920883 9
      vertex 7 3 3
      vertex 7 3 9
    endloop
  endfacet
  facet normal 0.994522 -0.104529 0
    outer loop
      vertex 7 3 3
      vertex 6.78148 0.920883 9
      vertex 6.78148 0.920883 3
    endloop
  endfacet
  facet normal 0.587785 -0.809017 0
    outer loop
      vertex 2 -5.66025 3
      vertex 3.69131 -4.43145 9
      vertex 2 -5.66025 9
    endloop
  endfacet
  facet normal 0.587785 -0.809017 0
    outer loop
      vertex 3.69131 -4.43145 9
      vertex 2 -5.66025 3
      vertex 3.69131 -4.43145 3
    endloop
  endfacet
  facet normal 1 -0 0
    outer loop
      vertex -84 6 9
      vertex -84 74 3
      vertex -84 74 9
    endloop
  endfacet
  facet normal 1 0 0
    outer loop
      vertex -84 74 3
      vertex -84 6 9
      vertex -84 6 3
    endloop
  endfacet
  facet normal 0.994522 0.104527 0
    outer loop
      vertex -83.7815 3.92088 9
      vertex -84 6 3
      vertex -84 6 9
    endloop
  endfacet
  facet normal 0.994522 0.104527 0
    outer loop
      vertex -84 6 3
      vertex -83.7815 3.92088 9
      vertex -83.7815 3.92088 3
    endloop
  endfacet
  facet normal -1 0 0
    outer loop
      vertex 4 6 3
      vertex 4 74 9
      vertex 4 74 3
    endloop
  endfacet
  facet normal -1 -0 0
    outer loop
      vertex 4 74 9
      vertex 4 6 3
      vertex 4 6 9
    endloop
  endfacet
  facet normal 0 1 -0
    outer loop
      vertex -4.95472 -3.94522 3
      vertex -75.0453 -3.94522 9
      vertex -4.95472 -3.94522 9
    endloop
  endfacet
  facet normal 0 1 0
    outer loop
      vertex -75.0453 -3.94522 9
      vertex -4.95472 -3.94522 3
      vertex -75.0453 -3.94522 3
    endloop
  endfacet
  facet normal 0.866026 0.499998 0
    outer loop
      vertex -82.0902 0.122148 9
      vertex -83.1355 1.93263 3
      vertex -83.1355 1.93263 9
    endloop
  endfacet
  facet normal 0.866026 0.499998 0
    outer loop
      vertex -83.1355 1.93263 3
      vertex -82.0902 0.122148 9
      vertex -82.0902 0.122148 3
    endloop
  endfacet
  facet normal -0.587785 -0.809017 0
    outer loop
      vertex -1 82.6603 3
      vertex 0.691305 81.4314 9
      vertex -1 82.6603 9
    endloop
  endfacet
  facet normal -0.587785 -0.809017 -0
    outer loop
      vertex 0.691305 81.4314 9
      vertex -1 82.6603 3
      vertex 0.691305 81.4314 3
    endloop
  endfacet
  facet normal 0.994522 -0.104527 0
    outer loop
      vertex -84 74 9
      vertex -83.7815 76.0791 3
      vertex -83.7815 76.0791 9
    endloop
  endfacet
  facet normal 0.994522 -0.104527 0
    outer loop
      vertex -83.7815 76.0791 3
      vertex -84 74 9
      vertex -84 74 3
    endloop
  endfacet
  facet normal 0.951056 0.309019 0
    outer loop
      vertex -83.1355 1.93263 9
      vertex -83.7815 3.92088 3
      vertex -83.7815 3.92088 9
    endloop
  endfacet
  facet normal 0.951056 0.309019 0
    outer loop
      vertex -83.7815 3.92088 3
      vertex -83.1355 1.93263 9
      vertex -83.1355 1.93263 3
    endloop
  endfacet
  facet normal 0.951056 -0.309019 0
    outer loop
      vertex -83.7815 76.0791 9
      vertex -83.1355 78.0674 3
      vertex -83.1355 78.0674 9
    endloop
  endfacet
  facet normal 0.951056 -0.309019 0
    outer loop
      vertex -83.1355 78.0674 3
      vertex -83.7815 76.0791 9
      vertex -83.7815 76.0791 3
    endloop
  endfacet
  facet normal 0.743145 -0.669131 0
    outer loop
      vertex -82.0902 79.8779 9
      vertex -80.6913 81.4314 3
      vertex -80.6913 81.4314 9
    endloop
  endfacet
  facet normal 0.743145 -0.669131 0
    outer loop
      vertex -80.6913 81.4314 3
      vertex -82.0902 79.8779 9
      vertex -82.0902 79.8779 3
    endloop
  endfacet
  facet normal 0.587785 0.809017 -0
    outer loop
      vertex -79 -2.66025 3
      vertex -80.6913 -1.43145 9
      vertex -79 -2.66025 9
    endloop
  endfacet
  facet normal 0.587785 0.809017 0
    outer loop
      vertex -80.6913 -1.43145 9
      vertex -79 -2.66025 3
      vertex -80.6913 -1.43145 3
    endloop
  endfacet
  facet normal 0.743145 0.669131 0
    outer loop
      vertex -80.6913 -1.43145 9
      vertex -82.0902 0.122148 3
      vertex -82.0902 0.122148 9
    endloop
  endfacet
  facet normal 0.743145 0.669131 0
    outer loop
      vertex -82.0902 0.122148 3
      vertex -80.6913 -1.43145 9
      vertex -80.6913 -1.43145 3
    endloop
  endfacet
  facet normal -0.743145 0.669131 0
    outer loop
      vertex 0.691305 -1.43145 3
      vertex 2.09017 0.122148 9
      vertex 2.09017 0.122148 3
    endloop
  endfacet
  facet normal -0.743145 0.669131 0
    outer loop
      vertex 2.09017 0.122148 9
      vertex 0.691305 -1.43145 3
      vertex 0.691305 -1.43145 9
    endloop
  endfacet
  facet normal -0.207911 0.978148 0
    outer loop
      vertex -2.90983 -3.51056 3
      vertex -4.95472 -3.94522 9
      vertex -2.90983 -3.51056 9
    endloop
  endfacet
  facet normal -0.207911 0.978148 0
    outer loop
      vertex -4.95472 -3.94522 9
      vertex -2.90983 -3.51056 3
      vertex -4.95472 -3.94522 3
    endloop
  endfacet
  facet normal -0.994522 -0.104529 0
    outer loop
      vertex 4 74 3
      vertex 3.78148 76.0791 9
      vertex 3.78148 76.0791 3
    endloop
  endfacet
  facet normal -0.994522 -0.104529 0
    outer loop
      vertex 3.78148 76.0791 9
      vertex 4 74 3
      vertex 4 74 9
    endloop
  endfacet
  facet normal 0.207912 -0.978148 0
    outer loop
      vertex -77.0902 83.5106 3
      vertex -75.0453 83.9452 9
      vertex -77.0902 83.5106 9
    endloop
  endfacet
  facet normal 0.207912 -0.978148 0
    outer loop
      vertex -75.0453 83.9452 9
      vertex -77.0902 83.5106 3
      vertex -75.0453 83.9452 3
    endloop
  endfacet
  facet normal 0 -1 0
    outer loop
      vertex -75.0453 83.9452 3
      vertex -4.95472 83.9452 9
      vertex -75.0453 83.9452 9
    endloop
  endfacet
  facet normal 0 -1 -0
    outer loop
      vertex -4.95472 83.9452 9
      vertex -75.0453 83.9452 3
      vertex -4.95472 83.9452 3
    endloop
  endfacet
  facet normal -0.207912 -0.978148 0
    outer loop
      vertex -4.95472 83.9452 3
      vertex -2.90983 83.5106 9
      vertex -4.95472 83.9452 9
    endloop
  endfacet
  facet normal -0.207912 -0.978148 -0
    outer loop
      vertex -2.90983 83.5106 9
      vertex -4.95472 83.9452 3
      vertex -2.90983 83.5106 3
    endloop
  endfacet
  facet normal 0.406737 -0.913545 0
    outer loop
      vertex -79 82.6603 3
      vertex -77.0902 83.5106 9
      vertex -79 82.6603 9
    endloop
  endfacet
  facet normal 0.406737 -0.913545 0
    outer loop
      vertex -77.0902 83.5106 9
      vertex -79 82.6603 3
      vertex -77.0902 83.5106 3
    endloop
  endfacet
  facet normal 0.406737 0.913545 -0
    outer loop
      vertex -77.0902 -3.51056 3
      vertex -79 -2.66025 9
      vertex -77.0902 -3.51056 9
    endloop
  endfacet
  facet normal 0.406737 0.913545 0
    outer loop
      vertex -79 -2.66025 9
      vertex -77.0902 -3.51056 3
      vertex -79 -2.66025 3
    endloop
  endfacet
  facet normal 0.207912 0.978148 -0
    outer loop
      vertex -75.0453 -3.94522 3
      vertex -77.0902 -3.51056 9
      vertex -75.0453 -3.94522 9
    endloop
  endfacet
  facet normal 0.207912 0.978148 0
    outer loop
      vertex -77.0902 -3.51056 9
      vertex -75.0453 -3.94522 3
      vertex -77.0902 -3.51056 3
    endloop
  endfacet
  facet normal -0.866026 0.5 0
    outer loop
      vertex 2.09017 0.122148 3
      vertex 3.13545 1.93263 9
      vertex 3.13545 1.93263 3
    endloop
  endfacet
  facet normal -0.866026 0.5 0
    outer loop
      vertex 3.13545 1.93263 9
      vertex 2.09017 0.122148 3
      vertex 2.09017 0.122148 9
    endloop
  endfacet
  facet normal -0.406737 0.913545 0
    outer loop
      vertex -1 -2.66025 3
      vertex -2.90983 -3.51056 9
      vertex -1 -2.66025 9
    endloop
  endfacet
  facet normal -0.406737 0.913545 0
    outer loop
      vertex -2.90983 -3.51056 9
      vertex -1 -2.66025 3
      vertex -2.90983 -3.51056 3
    endloop
  endfacet
  facet normal -0.951057 -0.309017 0
    outer loop
      vertex 3.78148 76.0791 3
      vertex 3.13545 78.0674 9
      vertex 3.13545 78.0674 3
    endloop
  endfacet
  facet normal -0.951057 -0.309017 0
    outer loop
      vertex 3.13545 78.0674 9
      vertex 3.78148 76.0791 3
      vertex 3.78148 76.0791 9
    endloop
  endfacet
  facet normal -0.866025 -0.5 0
    outer loop
      vertex 3.13545 78.0674 3
      vertex 2.09017 79.8779 9
      vertex 2.09017 79.8779 3
    endloop
  endfacet
  facet normal -0.866025 -0.5 0
    outer loop
      vertex 2.09017 79.8779 9
      vertex 3.13545 78.0674 3
      vertex 3.13545 78.0674 9
    endloop
  endfacet
  facet normal -0.743145 -0.669131 0
    outer loop
      vertex 2.09017 79.8779 3
      vertex 0.691305 81.4314 9
      vertex 0.691305 81.4314 3
    endloop
  endfacet
  facet normal -0.743145 -0.669131 0
    outer loop
      vertex 0.691305 81.4314 9
      vertex 2.09017 79.8779 3
      vertex 2.09017 79.8779 9
    endloop
  endfacet
  facet normal 0.587785 -0.809017 0
    outer loop
      vertex -80.6913 81.4314 3
      vertex -79 82.6603 9
      vertex -80.6913 81.4314 9
    endloop
  endfacet
  facet normal 0.587785 -0.809017 0
    outer loop
      vertex -79 82.6603 9
      vertex -80.6913 81.4314 3
      vertex -79 82.6603 3
    endloop
  endfacet
  facet normal -0.406737 -0.913545 0
    outer loop
      vertex -2.90983 83.5106 3
      vertex -1 82.6603 9
      vertex -2.90983 83.5106 9
    endloop
  endfacet
  facet normal -0.406737 -0.913545 -0
    outer loop
      vertex -1 82.6603 9
      vertex -2.90983 83.5106 3
      vertex -1 82.6603 3
    endloop
  endfacet
  facet normal 0.866026 -0.499999 0
    outer loop
      vertex -83.1355 78.0674 9
      vertex -82.0902 79.8779 3
      vertex -82.0902 79.8779 9
    endloop
  endfacet
  facet normal 0.866026 -0.499999 0
    outer loop
      vertex -82.0902 79.8779 3
      vertex -83.1355 78.0674 9
      vertex -83.1355 78.0674 3
    endloop
  endfacet
  facet normal -0.951057 0.309017 0
    outer loop
      vertex 3.13545 1.93263 3
      vertex 3.78148 3.92088 9
      vertex 3.78148 3.92088 3
    endloop
  endfacet
  facet normal -0.951057 0.309017 0
    outer loop
      vertex 3.78148 3.92088 9
      vertex 3.13545 1.93263 3
      vertex 3.13545 1.93263 9
    endloop
  endfacet
  facet normal -0.994522 0.104529 0
    outer loop
      vertex 3.78148 3.92088 3
      vertex 4 6 9
      vertex 4 6 3
    endloop
  endfacet
  facet normal -0.994522 0.104529 0
    outer loop
      vertex 4 6 9
      vertex 3.78148 3.92088 3
      vertex 3.78148 3.92088 9
    endloop
  endfacet
  facet normal -0.587785 0.809017 0
    outer loop
      vertex 0.691305 -1.43145 3
      vertex -1 -2.66025 9
      vertex 0.691305 -1.43145 9
    endloop
  endfacet
  facet normal -0.587785 0.809017 0
    outer loop
      vertex -1 -2.66025 9
      vertex 0.691305 -1.43145 3
      vertex -1 -2.66025 3
    endloop
  endfacet
endsolid OpenSCAD_Model
